<svg width="17" height="18" viewBox="0 0 17 18" fill="none" xmlns="http://www.w3.org/2000/svg">
<rect width="17" height="18" fill="#323232"/>
<g id="/members" clip-path="url(#clip0_0_1)">
<rect width="1280" height="720" transform="translate(-873 -34)" fill="#F7F7F7"/>
<rect id="Rectangle 6" x="-873" y="-34" width="1280" height="720" fill="#E2E8F0"/>
<g id="main-window">
<g id="Rectangle 8" filter="url(#filter0_d_0_1)">
<rect x="-666" y="-21" width="1053" height="694" rx="10" fill="white"/>
</g>
<g id="searchbar">
<rect x="-446.5" y="-7.5" width="476" height="33" rx="6.5" fill="white"/>
<rect x="-446.5" y="-7.5" width="476" height="33" rx="6.5" stroke="#CBD5E1"/>
<g id="icon/search">
<path id="Vector" d="M7.79167 13.9583C10.9213 13.9583 13.4583 11.4213 13.4583 8.29167C13.4583 5.16205 10.9213 2.625 7.79167 2.625C4.66205 2.625 2.125 5.16205 2.125 8.29167C2.125 11.4213 4.66205 13.9583 7.79167 13.9583Z" stroke="#94A3B8" stroke-width="2" stroke-linecap="round" stroke-linejoin="round"/>
<path id="Vector_2" d="M14.8742 15.3752L11.793 12.2939" stroke="#94A3B8" stroke-width="2" stroke-linecap="round" stroke-linejoin="round"/>
</g>
</g>
</g>
</g>
<defs>
<filter id="filter0_d_0_1" x="-670" y="-25" width="1061" height="702" filterUnits="userSpaceOnUse" color-interpolation-filters="sRGB">
<feFlood flood-opacity="0" result="BackgroundImageFix"/>
<feColorMatrix in="SourceAlpha" type="matrix" values="0 0 0 0 0 0 0 0 0 0 0 0 0 0 0 0 0 0 127 0" result="hardAlpha"/>
<feOffset/>
<feGaussianBlur stdDeviation="2"/>
<feComposite in2="hardAlpha" operator="out"/>
<feColorMatrix type="matrix" values="0 0 0 0 0 0 0 0 0 0 0 0 0 0 0 0 0 0 0.25 0"/>
<feBlend mode="normal" in2="BackgroundImageFix" result="effect1_dropShadow_0_1"/>
<feBlend mode="normal" in="SourceGraphic" in2="effect1_dropShadow_0_1" result="shape"/>
</filter>
<clipPath id="clip0_0_1">
<rect width="1280" height="720" fill="white" transform="translate(-873 -34)"/>
</clipPath>
</defs>
</svg>
